<svg width="255" height="60" viewBox="0 0 255 60" fill="none" xmlns="http://www.w3.org/2000/svg">
<rect width="255" height="60" rx="20" fill="#FF7979" fill-opacity="0.1"/>
<path d="M72.04 30.18C71.96 30.18 71.86 30.18 71.74 30.18C71.62 30.14 71.56 30.06 71.56 29.94C71.56 29.66 71.72 29.44 72.04 29.28C72.4 29.08 72.68 28.96 72.88 28.92L74.14 28.74C75.38 28.58 76.64 28.3 77.92 27.9C78.72 27.7 79.72 27.4 80.92 27C82.16 26.6 83.44 26.1 84.76 25.5C86.12 24.9 87.38 24.22 88.54 23.46C89.74 22.7 90.7 21.88 91.42 21C92.18 20.08 92.56 19.12 92.56 18.12C92.56 17.08 92.14 16.3 91.3 15.78C90.46 15.26 89.48 14.92 88.36 14.76C87.28 14.6 86.36 14.52 85.6 14.52C83.08 14.52 80.38 14.88 77.5 15.6C74.66 16.32 72.02 17.04 69.58 17.76C69.3 17.88 68.98 17.94 68.62 17.94C68.18 17.94 67.82 17.8 67.54 17.52C67.3 17.2 67.18 16.82 67.18 16.38C67.18 15.38 67.6 14.7 68.44 14.34C68.76 14.22 69.06 14.12 69.34 14.04C69.66 13.96 69.96 13.9 70.24 13.86C72.6 13.38 75 12.94 77.44 12.54C79.88 12.1 82.32 11.88 84.76 11.88C85.84 11.88 86.98 11.98 88.18 12.18C89.38 12.34 90.48 12.66 91.48 13.14C92.52 13.62 93.36 14.3 94 15.18C94.68 16.02 95.02 17.12 95.02 18.48C95.02 19.84 94.52 21.08 93.52 22.2C92.56 23.28 91.34 24.22 89.86 25.02C88.38 25.82 86.88 26.48 85.36 27C83.84 27.52 82.54 27.92 81.46 28.2C79.98 28.56 78.44 28.96 76.84 29.4C75.24 29.84 73.7 30.1 72.22 30.18H72.04ZM62.26 42.72C62.06 42.72 61.96 42.6 61.96 42.36C61.96 42.2 61.98 42.1 62.02 42.06C62.34 40.98 62.76 39.94 63.28 38.94C63.84 37.9 64.38 36.9 64.9 35.94C65.1 35.58 65.48 34.92 66.04 33.96C66.64 32.96 67.34 31.8 68.14 30.48C68.94 29.12 69.78 27.74 70.66 26.34C71.58 24.9 72.44 23.56 73.24 22.32C74.04 21.08 74.72 20.08 75.28 19.32C75.88 18.56 76.26 18.18 76.42 18.18C76.62 18.18 76.94 18.26 77.38 18.42C77.86 18.54 78.32 18.7 78.76 18.9C79.2 19.06 79.48 19.22 79.6 19.38C77.96 21.22 76.28 23.08 74.56 24.96C72.88 26.84 71.32 28.78 69.88 30.78C68.64 32.62 67.46 34.5 66.34 36.42C65.26 38.34 64.14 40.24 62.98 42.12C62.82 42.52 62.58 42.72 62.26 42.72ZM99.0072 23.94C98.6072 23.94 98.2672 23.8 97.9872 23.52C97.7472 23.2 97.6272 22.84 97.6272 22.44C97.6272 21.76 97.9272 21.12 98.5272 20.52C99.1672 19.88 99.8272 19.56 100.507 19.56C100.907 19.56 101.207 19.7 101.407 19.98C101.647 20.22 101.767 20.54 101.767 20.94C101.767 21.58 101.467 22.24 100.867 22.92C100.307 23.6 99.6872 23.94 99.0072 23.94ZM90.2472 42.24C89.4872 42.24 88.8472 42.02 88.3272 41.58C87.8472 41.14 87.6072 40.54 87.6072 39.78C87.6072 39.18 87.8072 38.36 88.2072 37.32C88.6072 36.28 89.1072 35.16 89.7072 33.96C90.3072 32.76 90.8872 31.66 91.4472 30.66C92.0472 29.62 92.5272 28.84 92.8872 28.32C93.2072 27.8 93.5672 27.28 93.9672 26.76C94.3672 26.24 94.9072 25.98 95.5872 25.98C95.7872 25.98 96.1472 26.06 96.6672 26.22C97.2272 26.38 97.7472 26.58 98.2272 26.82C98.7472 27.02 99.0072 27.24 99.0072 27.48C98.5672 27.64 98.0072 28.1 97.3272 28.86C96.6472 29.58 95.9272 30.44 95.1672 31.44C94.4072 32.44 93.6872 33.48 93.0072 34.56C92.3672 35.64 91.8272 36.64 91.3872 37.56C90.9872 38.48 90.7872 39.18 90.7872 39.66C90.7872 40.38 91.1472 40.74 91.8672 40.74C92.4272 40.74 93.1072 40.44 93.9072 39.84C94.7072 39.24 95.5272 38.5 96.3672 37.62C97.2472 36.74 98.0672 35.86 98.8272 34.98C99.5872 34.06 100.227 33.3 100.747 32.7C101.267 32.1 101.567 31.8 101.647 31.8C101.807 31.8 101.887 31.88 101.887 32.04C101.887 32.12 101.687 32.4 101.287 32.88C100.887 33.36 100.367 33.96 99.7272 34.68C99.1272 35.36 98.4872 36.06 97.8072 36.78C97.1672 37.46 96.6072 38.06 96.1272 38.58C95.6472 39.1 95.3272 39.42 95.1672 39.54C94.5272 40.14 93.7672 40.74 92.8872 41.34C92.0472 41.94 91.1672 42.24 90.2472 42.24ZM109.623 42.18C108.823 42.18 108.223 41.92 107.823 41.4C107.423 40.84 107.223 40.18 107.223 39.42C107.223 38.38 107.463 37.24 107.943 36C108.423 34.76 108.963 33.56 109.563 32.4C110.163 31.24 110.703 30.26 111.183 29.46C111.663 28.62 111.903 28.08 111.903 27.84C111.903 27.76 111.863 27.72 111.783 27.72C111.663 27.72 111.523 27.78 111.363 27.9C111.203 27.98 111.083 28.06 111.003 28.14C109.803 28.94 108.543 30.06 107.223 31.5C105.943 32.94 104.723 34.46 103.563 36.06C102.443 37.62 101.503 39.04 100.743 40.32C100.303 41.08 99.7825 41.56 99.1825 41.76C98.6225 41.92 97.9425 42 97.1425 42C97.4225 41.36 97.7225 40.74 98.0425 40.14C98.3625 39.54 98.6625 38.96 98.9425 38.4C99.4225 37.44 99.8625 36.5 100.263 35.58C100.663 34.62 101.063 33.66 101.463 32.7C101.783 31.86 102.123 30.88 102.483 29.76C102.843 28.6 103.023 27.58 103.023 26.7C103.023 26.46 103.003 26.22 102.963 25.98C102.923 25.74 102.843 25.52 102.723 25.32C102.603 25.2 102.543 25.14 102.543 25.14C102.543 24.9 102.683 24.78 102.963 24.78C103.203 24.78 103.623 24.92 104.223 25.2C104.823 25.48 105.383 25.82 105.903 26.22C106.463 26.58 106.743 26.92 106.743 27.24C106.743 27.84 106.503 28.7 106.023 29.82C105.583 30.94 105.063 32.04 104.463 33.12C103.903 34.16 103.423 34.94 103.023 35.46C102.983 35.5 102.923 35.56 102.843 35.64C102.803 35.72 102.783 35.8 102.783 35.88L102.843 35.94C102.923 35.94 103.243 35.6 103.803 34.92C104.363 34.2 105.063 33.32 105.903 32.28C106.783 31.24 107.743 30.2 108.783 29.16C109.823 28.08 110.863 27.2 111.903 26.52C112.943 25.8 113.903 25.44 114.783 25.44C115.223 25.44 115.723 25.56 116.283 25.8C116.843 26 117.123 26.38 117.123 26.94C117.123 27.1 117.083 27.26 117.003 27.42C116.923 27.54 116.843 27.68 116.763 27.84C115.523 29.52 114.363 31.16 113.283 32.76C112.203 34.32 111.243 36.1 110.403 38.1C110.323 38.34 110.223 38.6 110.103 38.88C110.023 39.12 109.983 39.38 109.983 39.66C109.983 40.38 110.343 40.74 111.063 40.74C111.663 40.74 112.363 40.44 113.163 39.84C113.963 39.24 114.783 38.5 115.623 37.62C116.503 36.74 117.323 35.86 118.083 34.98C118.843 34.06 119.483 33.3 120.003 32.7C120.523 32.1 120.823 31.8 120.903 31.8C121.023 31.8 121.083 31.88 121.083 32.04C121.083 32.08 120.903 32.32 120.543 32.76C120.223 33.16 119.883 33.56 119.523 33.96C119.163 34.36 118.923 34.62 118.803 34.74C118.123 35.5 117.343 36.4 116.463 37.44C115.623 38.44 114.723 39.36 113.763 40.2C112.803 41.04 111.823 41.64 110.823 42C110.463 42.12 110.063 42.18 109.623 42.18ZM120.141 42.24C119.421 42.24 118.781 42.04 118.221 41.64C117.701 41.2 117.441 40.6 117.441 39.84C117.441 39.16 117.681 38.24 118.161 37.08C118.681 35.92 119.281 34.68 119.961 33.36C120.681 32.04 121.381 30.82 122.061 29.7C122.741 28.58 123.281 27.7 123.681 27.06H121.341L121.701 26.46H124.041C124.601 25.54 125.141 24.62 125.661 23.7C126.221 22.78 126.821 21.88 127.461 21C127.821 20.48 128.201 20 128.601 19.56C129.041 19.08 129.601 18.84 130.281 18.84C130.521 18.84 130.921 18.92 131.481 19.08C132.041 19.2 132.561 19.36 133.041 19.56C133.561 19.76 133.841 19.98 133.881 20.22C133.281 20.42 132.581 20.94 131.781 21.78C131.021 22.58 130.301 23.44 129.621 24.36C128.941 25.24 128.421 25.94 128.061 26.46H130.821L130.461 27.06H127.641C127.241 27.58 126.641 28.42 125.841 29.58C125.081 30.7 124.281 31.92 123.441 33.24C122.601 34.56 121.881 35.8 121.281 36.96C120.721 38.08 120.441 38.94 120.441 39.54C120.441 40.34 120.881 40.74 121.761 40.74C122.361 40.74 123.061 40.44 123.861 39.84C124.661 39.24 125.481 38.5 126.321 37.62C127.161 36.74 127.961 35.86 128.721 34.98C129.481 34.06 130.121 33.3 130.641 32.7C131.161 32.1 131.461 31.8 131.541 31.8C131.661 31.8 131.721 31.88 131.721 32.04C131.721 32.08 131.541 32.32 131.181 32.76C130.861 33.16 130.521 33.56 130.161 33.96C129.801 34.36 129.561 34.62 129.441 34.74C128.921 35.34 128.301 36.06 127.581 36.9C126.901 37.74 126.141 38.58 125.301 39.42C124.461 40.22 123.601 40.9 122.721 41.46C121.841 41.98 120.981 42.24 120.141 42.24ZM132.905 42.06C131.785 42.06 130.705 41.78 129.665 41.22C128.625 40.66 128.105 39.74 128.105 38.46C128.105 38.3 128.105 38.16 128.105 38.04C128.145 37.88 128.185 37.72 128.225 37.56C128.545 36.2 129.125 34.86 129.965 33.54C130.845 32.22 131.885 30.98 133.085 29.82C134.325 28.66 135.605 27.64 136.925 26.76C138.285 25.84 139.585 25.14 140.825 24.66C140.945 24.58 141.065 24.52 141.185 24.48C141.305 24.44 141.445 24.42 141.605 24.42C141.965 24.42 142.265 24.62 142.505 25.02C142.745 25.38 142.925 25.8 143.045 26.28C143.165 26.76 143.225 27.14 143.225 27.42C143.225 28.14 143.005 28.88 142.565 29.64C142.165 30.36 141.705 30.96 141.185 31.44C141.425 31.44 141.665 31.46 141.905 31.5C142.145 31.5 142.385 31.5 142.625 31.5C142.705 31.5 142.745 31.54 142.745 31.62C142.745 31.66 142.705 31.7 142.625 31.74C142.545 31.78 142.465 31.82 142.385 31.86L140.585 32.04C139.465 32.16 138.305 32.34 137.105 32.58C135.905 32.82 134.765 33.14 133.685 33.54C133.165 34.26 132.645 35.16 132.125 36.24C131.605 37.32 131.345 38.32 131.345 39.24C131.345 39.76 131.465 40.22 131.705 40.62C131.945 40.98 132.365 41.16 132.965 41.16C133.325 41.16 133.685 41.1 134.045 40.98C134.445 40.82 134.805 40.66 135.125 40.5C137.045 39.54 138.765 38.4 140.285 37.08C141.805 35.72 143.285 34.26 144.725 32.7C144.805 32.62 144.865 32.58 144.905 32.58C144.985 32.58 145.025 32.62 145.025 32.7C145.025 32.82 144.985 32.96 144.905 33.12C144.825 33.24 144.745 33.34 144.665 33.42C143.585 34.78 142.345 36.16 140.945 37.56C139.545 38.92 138.125 40.06 136.685 40.98C135.565 41.7 134.305 42.06 132.905 42.06ZM135.185 31.74C136.105 31.66 137.025 31.6 137.945 31.56C138.865 31.48 139.785 31.44 140.705 31.44C140.945 31.12 141.145 30.7 141.305 30.18C141.505 29.62 141.605 29.14 141.605 28.74C141.605 28.54 141.565 28.34 141.485 28.14C141.405 27.9 141.225 27.78 140.945 27.78H140.765C140.285 27.94 139.665 28.26 138.905 28.74C138.185 29.22 137.485 29.74 136.805 30.3C136.125 30.86 135.585 31.34 135.185 31.74ZM150.089 42.24C149.289 42.24 148.629 42 148.109 41.52C147.629 41.04 147.389 40.4 147.389 39.6C147.389 38.8 147.629 37.82 148.109 36.66C148.629 35.5 149.249 34.28 149.969 33C150.689 31.72 151.409 30.52 152.129 29.4C152.849 28.24 153.429 27.3 153.869 26.58C153.589 26.7 153.249 26.76 152.849 26.76C152.409 26.76 151.949 26.7 151.469 26.58C150.989 26.42 150.529 26.26 150.089 26.1C149.969 26.3 149.669 26.74 149.189 27.42C148.749 28.06 148.209 28.82 147.569 29.7C146.969 30.54 146.349 31.36 145.709 32.16C145.069 32.96 144.509 33.64 144.029 34.2C143.589 34.72 143.289 34.98 143.129 34.98C143.009 34.98 142.949 34.92 142.949 34.8C142.949 34.72 143.009 34.62 143.129 34.5C143.569 33.94 144.009 33.4 144.449 32.88C144.929 32.36 145.389 31.82 145.829 31.26C146.509 30.42 147.149 29.54 147.749 28.62C148.349 27.7 148.889 26.74 149.369 25.74C149.129 25.58 148.809 25.34 148.409 25.02C148.009 24.7 147.809 24.38 147.809 24.06C147.809 23.62 148.069 23.2 148.589 22.8C149.109 22.36 149.689 21.98 150.329 21.66C150.969 21.34 151.449 21.1 151.769 20.94C151.929 20.9 152.289 20.76 152.849 20.52C153.449 20.24 153.769 20.1 153.809 20.1C153.969 20.1 154.049 20.18 154.049 20.34C154.049 20.38 153.789 20.64 153.269 21.12C152.789 21.56 152.289 22.1 151.769 22.74C151.289 23.38 151.049 24.02 151.049 24.66C151.049 25.22 151.289 25.62 151.769 25.86C152.249 26.1 152.729 26.22 153.209 26.22C153.649 26.22 154.009 26.14 154.289 25.98C154.409 25.78 154.569 25.68 154.769 25.68C155.089 25.68 155.489 25.74 155.969 25.86C156.449 25.94 156.889 26.1 157.289 26.34C157.689 26.54 157.889 26.84 157.889 27.24C157.889 27.52 157.809 27.8 157.649 28.08C157.489 28.32 157.309 28.54 157.109 28.74C156.709 29.22 156.109 29.94 155.309 30.9C154.549 31.82 153.749 32.84 152.909 33.96C152.109 35.08 151.429 36.14 150.869 37.14C150.309 38.14 150.029 38.92 150.029 39.48C150.029 39.88 150.169 40.22 150.449 40.5C150.729 40.74 151.069 40.86 151.469 40.86C152.109 40.86 152.849 40.56 153.689 39.96C154.529 39.32 155.369 38.56 156.209 37.68C157.089 36.76 157.909 35.86 158.669 34.98C159.429 34.1 160.069 33.36 160.589 32.76C161.109 32.12 161.409 31.8 161.489 31.8C161.649 31.8 161.729 31.88 161.729 32.04C161.729 32.12 161.529 32.4 161.129 32.88C160.729 33.36 160.209 33.96 159.569 34.68C158.969 35.36 158.329 36.06 157.649 36.78C157.009 37.46 156.449 38.06 155.969 38.58C155.489 39.1 155.169 39.42 155.009 39.54C154.369 40.14 153.609 40.74 152.729 41.34C151.889 41.94 151.009 42.24 150.089 42.24ZM162.847 42.06C161.727 42.06 160.647 41.78 159.607 41.22C158.567 40.66 158.047 39.74 158.047 38.46C158.047 38.3 158.047 38.16 158.047 38.04C158.087 37.88 158.127 37.72 158.167 37.56C158.487 36.2 159.067 34.86 159.907 33.54C160.787 32.22 161.827 30.98 163.027 29.82C164.267 28.66 165.547 27.64 166.867 26.76C168.227 25.84 169.527 25.14 170.767 24.66C170.887 24.58 171.007 24.52 171.127 24.48C171.247 24.44 171.387 24.42 171.547 24.42C171.907 24.42 172.207 24.62 172.447 25.02C172.687 25.38 172.867 25.8 172.987 26.28C173.107 26.76 173.167 27.14 173.167 27.42C173.167 28.14 172.947 28.88 172.507 29.64C172.107 30.36 171.647 30.96 171.127 31.44C171.367 31.44 171.607 31.46 171.847 31.5C172.087 31.5 172.327 31.5 172.567 31.5C172.647 31.5 172.687 31.54 172.687 31.62C172.687 31.66 172.647 31.7 172.567 31.74C172.487 31.78 172.407 31.82 172.327 31.86L170.527 32.04C169.407 32.16 168.247 32.34 167.047 32.58C165.847 32.82 164.707 33.14 163.627 33.54C163.107 34.26 162.587 35.16 162.067 36.24C161.547 37.32 161.287 38.32 161.287 39.24C161.287 39.76 161.407 40.22 161.647 40.62C161.887 40.98 162.307 41.16 162.907 41.16C163.267 41.16 163.627 41.1 163.987 40.98C164.387 40.82 164.747 40.66 165.067 40.5C166.987 39.54 168.707 38.4 170.227 37.08C171.747 35.72 173.227 34.26 174.667 32.7C174.747 32.62 174.807 32.58 174.847 32.58C174.927 32.58 174.967 32.62 174.967 32.7C174.967 32.82 174.927 32.96 174.847 33.12C174.767 33.24 174.687 33.34 174.607 33.42C173.527 34.78 172.287 36.16 170.887 37.56C169.487 38.92 168.067 40.06 166.627 40.98C165.507 41.7 164.247 42.06 162.847 42.06ZM165.127 31.74C166.047 31.66 166.967 31.6 167.887 31.56C168.807 31.48 169.727 31.44 170.647 31.44C170.887 31.12 171.087 30.7 171.247 30.18C171.447 29.62 171.547 29.14 171.547 28.74C171.547 28.54 171.507 28.34 171.427 28.14C171.347 27.9 171.167 27.78 170.887 27.78H170.707C170.227 27.94 169.607 28.26 168.847 28.74C168.127 29.22 167.427 29.74 166.747 30.3C166.067 30.86 165.527 31.34 165.127 31.74ZM174.691 44.22C173.531 44.22 172.671 43.76 172.111 42.84C171.591 41.96 171.331 41 171.331 39.96C171.331 39.88 171.351 39.76 171.391 39.6C171.391 39.44 171.471 39.36 171.631 39.36C171.751 39.36 171.831 39.44 171.871 39.6C171.911 39.72 171.951 39.82 171.991 39.9C172.351 41.1 173.171 41.7 174.451 41.7C175.131 41.7 175.691 41.48 176.131 41.04C176.571 40.6 176.791 40.02 176.791 39.3C176.791 38.5 176.591 37.66 176.191 36.78C175.791 35.9 175.371 34.96 174.931 33.96C174.531 32.96 174.331 31.92 174.331 30.84C174.331 29.96 174.471 29.18 174.751 28.5C175.031 27.78 175.551 27.1 176.311 26.46C177.111 25.78 178.031 25.18 179.071 24.66C180.111 24.14 181.151 23.74 182.191 23.46C183.231 23.18 184.111 23.04 184.831 23.04C185.671 23.04 186.231 23.24 186.511 23.64C186.791 24.04 186.931 24.64 186.931 25.44C186.931 25.6 186.911 25.82 186.871 26.1C186.831 26.34 186.711 26.5 186.511 26.58C185.631 26.86 184.691 27.26 183.691 27.78C182.691 28.26 182.011 28.96 181.651 29.88C181.611 30 181.531 30.06 181.411 30.06C181.211 30.06 181.111 29.96 181.111 29.76C181.111 29.2 181.451 28.58 182.131 27.9C182.811 27.18 183.371 26.68 183.811 26.4C182.651 26.72 181.491 27.18 180.331 27.78C179.211 28.34 178.271 29.08 177.511 30C176.791 30.92 176.431 32.08 176.431 33.48C176.431 34.72 176.691 35.9 177.211 37.02C177.731 38.1 177.991 39.26 177.991 40.5C177.991 41.5 177.711 42.36 177.151 43.08C176.631 43.84 175.811 44.22 174.691 44.22ZM185.415 42.24C184.695 42.24 184.055 42.04 183.495 41.64C182.975 41.2 182.715 40.6 182.715 39.84C182.715 39.16 182.955 38.24 183.435 37.08C183.955 35.92 184.555 34.68 185.235 33.36C185.955 32.04 186.655 30.82 187.335 29.7C188.015 28.58 188.555 27.7 188.955 27.06H186.615L186.975 26.46H189.315C189.875 25.54 190.415 24.62 190.935 23.7C191.495 22.78 192.095 21.88 192.735 21C193.095 20.48 193.475 20 193.875 19.56C194.315 19.08 194.875 18.84 195.555 18.84C195.795 18.84 196.195 18.92 196.755 19.08C197.315 19.2 197.835 19.36 198.315 19.56C198.835 19.76 199.115 19.98 199.155 20.22C198.555 20.42 197.855 20.94 197.055 21.78C196.295 22.58 195.575 23.44 194.895 24.36C194.215 25.24 193.695 25.94 193.335 26.46H196.095L195.735 27.06H192.915C192.515 27.58 191.915 28.42 191.115 29.58C190.355 30.7 189.555 31.92 188.715 33.24C187.875 34.56 187.155 35.8 186.555 36.96C185.995 38.08 185.715 38.94 185.715 39.54C185.715 40.34 186.155 40.74 187.035 40.74C187.635 40.74 188.335 40.44 189.135 39.84C189.935 39.24 190.755 38.5 191.595 37.62C192.435 36.74 193.235 35.86 193.995 34.98C194.755 34.06 195.395 33.3 195.915 32.7C196.435 32.1 196.735 31.8 196.815 31.8C196.935 31.8 196.995 31.88 196.995 32.04C196.995 32.08 196.815 32.32 196.455 32.76C196.135 33.16 195.795 33.56 195.435 33.96C195.075 34.36 194.835 34.62 194.715 34.74C194.195 35.34 193.575 36.06 192.855 36.9C192.175 37.74 191.415 38.58 190.575 39.42C189.735 40.22 188.875 40.9 187.995 41.46C187.115 41.98 186.255 42.24 185.415 42.24Z" fill="black"/>
</svg>
